<svg height="512" viewBox="0 0 52 56" width="512" xmlns="http://www.w3.org/2000/svg">
<g id="Page-1" fill="none" fill-rule="evenodd">
<g id="005---Freezing-Samples" fill="#fff" fill-rule="nonzero">
<path fil='#fff' id="Shape" d="m4 11h2c.55228475 0 1 .4477153 1 1s-.44771525 1-1 1h-1v3h3c.55228475 0 1 .4477153 1 1s-.44771525 1-1 1h-3v2h8v-7h-3c-.55228475 0-1-.4477153-1-1s.44771525-1 1-1h4c.5522847 0 1-.4477153 1-1 0-.55228475-.4477153-1-1-1h-10c-.55228475 0-1 .44771525-1 1 0 .5522847.44771525 1 1 1z"/>
<path fil='#fff' id="Shape" d="m20 3h2c.5522847 0 1 .44771525 1 1s-.4477153 1-1 1h-1v3h3c.5522847 0 1 .44771525 1 1s-.4477153 1-1 1h-3v2h3c.5522847 0 1 .4477153 1 1s-.4477153 1-1 1h-3v2h3c.5522847 0 1 .4477153 1 1s-.4477153 1-1 1h-3v2h10v-15h-5c-.5522847 0-1-.44771525-1-1s.4477153-1 1-1h6c.5522847 0 1-.44771525 1-1v-1c0-.55228475-.4477153-1-1-1h-12c-.5522847 0-1 .44771525-1 1v1c0 .55228475.4477153 1 1 1z"/>
<path fil='#fff' id="Shape" d="m38 11h2c.5522847 0 1 .4477153 1 1s-.4477153 1-1 1h-1v3h3c.5522847 0 1 .4477153 1 1s-.4477153 1-1 1h-3v2h8v-7h-3c-.5522847 0-1-.4477153-1-1s.4477153-1 1-1h4c.5522847 0 1-.4477153 1-1 0-.55228475-.4477153-1-1-1h-10c-.5522847 0-1 .44771525-1 1 0 .5522847.4477153 1 1 1z"/>
<path fill='#fff' id="Shape" d="m1 28h6c.55228475 0 1 .4477153 1 1s-.44771525 1-1 1h-5v22c0 2.209139 1.790861 4 4 4h40c2.209139 0 4-1.790861 4-4v-22h-37c-.5522847 0-1-.4477153-1-1s.4477153-1 1-1h38c.5522847 0 1-.4477153 1-1v-4c0-.5522847-.4477153-1-1-1h-50c-.55228475 0-1 .4477153-1 1v4c0 .5522847.44771525 1 1 1zm16.521 18.1c-.3114657-.1907089-.4941947-.5360464-.4766621-.9008387.0175326-.3647922.2325379-.6910139.5608574-.8509736s.7177294-.1282135 1.0158047.0828123l1.35.891 2.188-1.264c-.214637-.6910507-.214637-1.4309493 0-2.122l-2.188-1.264-1.35.891c-.1628692.1085361-.3542799.1663074-.55.166-.4419784.0007745-.8320438-.2886886-.959363-.7119325-.1273191-.4232439.0383098-.8798695.407363-1.1230675l.515-.34-1.2-.691c-.4742136-.2780058-.6351286-.886647-.3602745-1.3626943.274854-.4760473.8824145-.640996 1.3602745-.3693057l1.2.691.037-.617c.0130493-.2657448.1326219-.5150232.3317096-.6915301.1990878-.1765069.4608963-.2653528.7262904-.2464699.5511284.0332435.9710252.5068585.938 1.058l-.1 1.615 2.184 1.26c.509088-.5136826 1.1481901-.8793776 1.849-1.058v-2.524l-1.447-.718c-.4942948-.2468713-.6948713-.8477051-.448-1.342.2468713-.4942948.8477052-.6948713 1.342-.448l.553.277v-1.387c0-.5522847.4477153-1 1-1s1 .4477153 1 1v1.382l.553-.277c.3197527-.1596977.7004141-.1366785.9985927.0603866.2981787.1970651.4685741.5382372.447.895-.021574.3567629-.23184.6749157-.5515927.8346134l-1.447.723v2.524c.7008099.1786224 1.339912.5443174 1.849 1.058l2.178-1.257-.1-1.615c-.0214359-.3572656.1493554-.6988286.4480385-.8960254.2986831-.1971969.6798809-.2200688 1-.06.320119.1600687.5305256.4787598.5519615.8360254l.037.617 1.2-.691c.3095704-.1814844.6926495-.1831833 1.0038174-.0044519.311168.1787315.5027136.5104885.5019247.8693336s-.1937913.6897567-.5057421.8671183l-1.2.691.515.34c.3690532.243198.5346821.6998236.407363 1.1230675-.1273192.4232439-.5173846.712707-.959363.7119325-.1957201.0003074-.3871308-.0574639-.55-.166l-1.35-.891-2.188 1.264c.214637.6910507.214637 1.4309493 0 2.122l2.188 1.264 1.35-.891c.2980753-.2110258.6874852-.242772 1.0158047-.0828123s.5433248.4861814.5608574.8509736c.0175326.3647923-.1651964.7101298-.4766621.9008387l-.515.34 1.2.691c.3119508.1773616.5049532.5082732.5057421.8671183s-.1907567.6906021-.5019247.8693336c-.3111679.1787314-.694247.1770325-1.0038174-.0044519l-1.2-.691-.037.617c-.0317798.5287239-.4703227.9409542-1 .94h-.061c-.5511284-.0332435-.9710252-.5068585-.938-1.058l.1-1.615-2.177-1.259c-.509088.5136826-1.1481901.8793776-1.849 1.058v2.524l1.447.723c.4942949.2468713.6948713.8477051.448 1.342s-.8477051.6948713-1.342.448l-.553-.277v1.382c0 .5522847-.4477153 1-1 1s-1-.4477153-1-1v-1.382l-.553.277c-.3197527.1596977-.7004141.1366785-.9985927-.0603866-.2981787-.1970651-.4685741-.5382372-.4470001-.895.0215741-.3567629.2318401-.6749157.5515928-.8346134l1.447-.723v-2.524c-.7008099-.1786224-1.339912-.5443174-1.849-1.058l-2.178 1.257.1 1.615c.0330252.5511415-.3868716 1.0247565-.938 1.058h-.061c-.5296773.0009542-.9682202-.4112761-1-.94l-.037-.617-1.2.691c-.47786.2716903-1.0854205.1067416-1.3602745-.3693057-.2748541-.4760473-.1139391-1.0846885.3602745-1.3626943l1.2-.691zm-8.521 6.9c0 .5522847-.44771525 1-1 1h-2c-1.1045695 0-2-.8954305-2-2v-2c0-.5522847.44771525-1 1-1s1 .4477153 1 1v2h2c.55228475 0 1 .4477153 1 1z"/>
<circle fill='#fff' id="Oval" cx="26" cy="43" r="2"/></g></g></svg>