<svg id="Capa_1" enable-background="new 0 0 512 512" height="512" viewBox="0 0 512 512" width="512" xmlns="http://www.w3.org/2000/svg"><g>
<path  fill='#fff' d="m340.787 289.574c-13.427 13.425-16.392 32.89-9.842 48.883-2.597 1.157-5.422 2.182-8.519 3.302-9.261 3.35-19.758 7.146-29.369 16.757-9.612 9.612-13.408 20.109-16.758 29.371-2.723 7.528-4.873 13.474-9.759 18.359-5.858 5.858-5.858 15.355 0 21.213s15.355 5.857 21.213 0c9.611-9.611 13.407-20.108 16.757-29.369 2.723-7.528 4.873-13.474 9.76-18.361 4.886-4.886 10.832-7.037 18.359-9.759 6.059-2.191 12.646-4.585 19.169-8.662 16.589 8.673 38.094 6.44 52.627-8.096 7.834-7.833 14.736-20.629 18.013-33.393 4.406-17.163 1.776-31.671-7.405-40.853-18.957-18.957-57.544-6.094-74.246 10.608zm52.344 23.718c-2.338 8.377-6.78 15.57-9.919 18.708-5.859 5.86-15.349 5.863-21.212-.001-5.863-5.863-5.863-15.349 0-21.213 9.301-9.3 28.524-13.034 31.792-10.638.437.574 1.693 4.715-.661 13.144z"/>
<path  fill='#fff' d="m347 182c-40.102 0-76.902 14.386-105.527 38.26l-35.073-35.073c7.843-16.384 5.314-37.113-8.802-51.228l-87.14-87.14c-5.854-5.855-15.357-5.857-21.213 0l-10.605 10.608-21.214-21.214 10.607-10.607c5.858-5.857 5.858-15.355 0-21.213-5.856-5.858-15.354-5.858-21.213 0-6.406 6.407-35.828 35.828-42.426 42.427-5.858 5.857-5.858 15.355 0 21.213 5.857 5.858 15.355 5.858 21.213 0l10.607-10.606 21.213 21.213-10.606 10.607c-5.858 5.858-5.858 15.355 0 21.213l87.14 87.14c13.852 13.852 34.495 16.743 51.208 8.781l35.092 35.092c-23.875 28.625-38.261 65.425-38.261 105.527 0 90.981 74.019 165 165 165s165-74.019 165-165-74.018-165-165-165zm-170.614-5.615c-5.85 5.849-15.365 5.848-21.213.001l-76.533-76.533 21.213-21.213 76.533 76.533c5.862 5.863 5.863 15.349 0 21.212zm170.614 305.615c-74.439 0-135-60.561-135-135 0-31.827 11.078-61.112 29.571-84.216l34.823 34.823c5.857 5.858 15.355 5.859 21.213 0 5.858-5.858 5.858-15.355 0-21.213l-34.823-34.823c23.104-18.493 52.389-29.571 84.216-29.571 74.439 0 135 60.561 135 135s-60.56 135-135 135z"/>
</g></svg>