<svg id="Capa_1" enable-background="new 0 0 512 512" height="512" viewBox="0 0 512 512" width="512" xmlns="http://www.w3.org/2000/svg"><g>
<path fill='#fff' d="m148.494 406.501h50.004c4.142 0 7.5-3.358 7.5-7.5v-60.499c0-4.142-3.358-7.5-7.5-7.5h-50.004c-4.142 0-7.5 3.358-7.5 7.5v60.499c0 4.142 3.358 7.5 7.5 7.5z"/>
<path fill='#fff' d="m243.498 301.002h50.004c4.142 0 7.5-3.358 7.5-7.5v-60.499c0-4.142-3.358-7.5-7.5-7.5h-50.004c-4.142 0-7.5 3.358-7.5 7.5v60.499c0 4.142 3.358 7.5 7.5 7.5z"/>
<path fill='#fff' d="m148.494 301.002h50.004c4.142 0 7.5-3.358 7.5-7.5v-60.499c0-4.142-3.358-7.5-7.5-7.5h-50.004c-4.142 0-7.5 3.358-7.5 7.5v60.499c0 4.142 3.358 7.5 7.5 7.5z"/>
<path fill='#fff' d="m140.994 497v7.5c0 4.142 3.358 7.5 7.5 7.5h50.004c4.142 0 7.5-3.358 7.5-7.5v-60.499c0-4.142-3.358-7.5-7.5-7.5h-50.004c-4.142 0-7.5 3.358-7.5 7.5z"/>
<path fill='#fff' d="m433.506 301.002h50.004c4.142 0 7.5-3.358 7.5-7.5v-60.499c0-4.142-3.358-7.5-7.5-7.5h-50.004c-4.142 0-7.5 3.358-7.5 7.5v60.499c0 4.142 3.358 7.5 7.5 7.5z"/>
<path fill='#fff' d="m476.011 0h-335.017v82.504c0 4.142 3.358 7.5 7.5 7.5h335.017c4.142 0 7.5-3.358 7.5-7.5v-67.504c0-8.284-6.716-15-15-15z"/>
<path fill='#fff' d="m433.506 195.503h50.004c4.142 0 7.5-3.358 7.5-7.5v-60.499c0-4.142-3.358-7.5-7.5-7.5h-50.004c-4.142 0-7.5 3.358-7.5 7.5v60.499c0 4.142 3.358 7.5 7.5 7.5z"/>
<path fill='#fff' d="m243.498 195.503h50.004c4.142 0 7.5-3.358 7.5-7.5v-60.499c0-4.142-3.358-7.5-7.5-7.5h-50.004c-4.142 0-7.5 3.358-7.5 7.5v60.499c0 4.142 3.358 7.5 7.5 7.5z"/>
<path fill='#fff' d="m433.506 406.501h50.004c4.142 0 7.5-3.358 7.5-7.5v-60.499c0-4.142-3.358-7.5-7.5-7.5h-50.004c-4.142 0-7.5 3.358-7.5 7.5v60.499c0 4.142 3.358 7.5 7.5 7.5z"/>
<path fill='#fff' d="m148.494 195.503h50.004c4.142 0 7.5-3.358 7.5-7.5v-60.499c0-4.142-3.358-7.5-7.5-7.5h-50.004c-4.142 0-7.5 3.358-7.5 7.5v60.499c0 4.142 3.358 7.5 7.5 7.5z"/>
<path fill='#fff' d="m20.989 497c0 8.284 6.716 15 15 15h67.505c4.142 0 7.5-3.358 7.5-7.5v-7.5-369.496c0-4.142-3.358-7.5-7.5-7.5h-82.505z"/>
<path fill='#fff' d="m20.989 15v75.004h82.505c4.142 0 7.5-3.358 7.5-7.5v-82.504h-75.005c-8.284 0-15 6.716-15 15z"/>
<path fill='#fff' d="m243.498 406.501h50.004c4.142 0 7.5-3.358 7.5-7.5v-60.499c0-4.142-3.358-7.5-7.5-7.5h-50.004c-4.142 0-7.5 3.358-7.5 7.5v60.499c0 4.142 3.358 7.5 7.5 7.5z"/>
<path fill='#fff' d="m433.506 512h42.504c8.284 0 15-6.716 15-15v-52.999c0-4.142-3.358-7.5-7.5-7.5h-50.004c-4.142 0-7.5 3.358-7.5 7.5v60.499c0 4.142 3.358 7.5 7.5 7.5z"/>
<path fill='#fff' d="m338.502 195.503h50.004c4.142 0 7.5-3.358 7.5-7.5v-60.499c0-4.142-3.358-7.5-7.5-7.5h-50.004c-4.142 0-7.5 3.358-7.5 7.5v60.499c0 4.142 3.358 7.5 7.5 7.5z"/>
<path fill='#fff' d="m243.498 512h50.004c4.142 0 7.5-3.358 7.5-7.5v-60.499c0-4.142-3.358-7.5-7.5-7.5h-50.004c-4.142 0-7.5 3.358-7.5 7.5v60.499c0 4.142 3.358 7.5 7.5 7.5z"/>
<path fill='#fff' d="m338.502 512h50.004c4.142 0 7.5-3.358 7.5-7.5v-60.499c0-4.142-3.358-7.5-7.5-7.5h-50.004c-4.142 0-7.5 3.358-7.5 7.5v60.499c0 4.142 3.358 7.5 7.5 7.5z"/>
<path fill='#fff' d="m338.502 406.501h50.004c4.142 0 7.5-3.358 7.5-7.5v-60.499c0-4.142-3.358-7.5-7.5-7.5h-50.004c-4.142 0-7.5 3.358-7.5 7.5v60.499c0 4.142 3.358 7.5 7.5 7.5z"/>
<path fill='#fff' d="m338.502 301.002h50.004c4.142 0 7.5-3.358 7.5-7.5v-60.499c0-4.142-3.358-7.5-7.5-7.5h-50.004c-4.142 0-7.5 3.358-7.5 7.5v60.499c0 4.142 3.358 7.5 7.5 7.5z"/>
</g>
</svg>