<svg id="Capa_1" enable-background="new 0 0 512 512" height="512" viewBox="0 0 512 512" width="512" xmlns="http://www.w3.org/2000/svg">
<g>
<path fill='#fff' d="m436.281 55.876c-35.228 0-56.255 17.614-73.15 31.768-10.535 8.825-18.4 15.101-27.079 17.736-14.714-29.326-45.069-49.504-80.052-49.504-34.984 0-65.338 20.177-80.052 49.503-8.68-2.635-16.544-8.91-27.079-17.735-16.896-14.153-37.923-31.768-73.15-31.768-29.035 0-46.715 12.241-56.434 22.511-12.436 13.14-19.285 30.726-19.285 49.517 0 32.601 21.584 65.555 62.991 71.177 5.959 18.098 23.013 31.204 43.081 31.204 25.007 0 45.352-20.345 45.352-45.353s-20.345-45.353-45.352-45.353c-19.319 0-35.846 12.147-42.37 29.202-23.168-4.653-33.702-22.829-33.702-40.877 0-20.92 14.137-42.028 45.719-42.028 24.322 0 38.682 12.029 53.885 24.765 10.702 8.965 22.453 18.798 37.604 23.427-.469 3.706-.712 7.481-.712 11.312 0 12.76 2.635 25.092 7.83 36.651 2.685 5.976 5.131 12.09 7.27 18.174 9.792 27.854 12.035 58.92 6.488 89.836-4.651 25.922-4.035 52.082 1.83 77.757l20.177 88.326h91.819l20.177-88.326c5.865-25.675 6.48-51.836 1.83-77.757-5.548-30.917-3.304-61.982 6.488-89.836 2.138-6.081 4.583-12.195 7.27-18.173 5.195-11.562 7.83-23.893 7.83-36.652 0-3.831-.243-7.606-.712-11.312 15.15-4.629 26.902-14.462 37.604-23.427 15.203-12.735 29.563-24.765 53.886-24.765 31.582 0 45.719 21.108 45.719 42.028 0 18.048-10.534 36.224-33.702 40.877-6.523-17.054-23.05-29.202-42.37-29.202-25.008 0-45.353 20.345-45.353 45.353s20.345 45.353 45.353 45.353c20.061 0 37.111-13.097 43.075-31.187 21.613-2.923 35.503-13.003 43.711-21.677 12.434-13.14 19.284-30.726 19.284-49.517 0-35.794-26.009-72.028-75.719-72.028zm-330.21 113.704c8.465 0 15.352 6.887 15.352 15.353s-6.887 15.353-15.352 15.353-15.353-6.887-15.353-15.353 6.888-15.353 15.353-15.353zm188.316 125.76c3.936 21.927 3.414 44.058-1.547 65.776l-14.851 65.008h-43.979l-14.85-65.008c-4.961-21.719-5.482-43.85-1.548-65.776 6.461-36.01 3.794-72.348-7.714-105.085-2.417-6.876-5.179-13.779-8.208-20.521-3.446-7.668-5.194-15.862-5.194-24.354 0-32.811 26.693-59.504 59.504-59.504s59.504 26.693 59.504 59.504c0 8.492-1.747 16.687-5.193 24.355-3.031 6.743-5.793 13.647-8.209 20.521-11.508 32.735-14.176 69.072-7.715 105.084zm111.542-95.055c-8.466 0-15.353-6.887-15.353-15.353s6.887-15.353 15.353-15.353 15.353 6.887 15.353 15.353-6.887 15.353-15.353 15.353z"/>
</g>
</svg>